<svg id="svg-bg" viewBox="0 0 1087 819" fill="none" xmlns="http://www.w3.org/2000/svg">
                <g id="bg2">
                <g id="vetor2" filter="url(#filter0_f)">
                <path d="M348.808 552.375C322.314 542.95 80.7925 417.123 102.049 252.416C106.259 208.353 116.898 120.227 125.77 120.227C136.86 120.227 361.131 181.255 386.392 299.307C411.653 417.358 677.204 425.605 714.788 445.87C752.371 466.134 787.183 480.272 811.212 490.875C835.241 501.479 837.397 515.617 877.445 561.801C917.494 607.984 993.893 718.025 986.5 718.025C979.106 718.025 915.029 690.456 853.724 654.875C792.42 619.295 736.044 631.783 639.62 624.243C543.196 616.703 375.301 561.801 348.808 552.375Z" fill="#5E2F9A" fill-opacity="0.68"/>
                <path d="M348.808 552.375C322.314 542.95 80.7925 417.123 102.049 252.416C106.259 208.353 116.898 120.227 125.77 120.227C136.86 120.227 361.131 181.255 386.392 299.307C411.653 417.358 677.204 425.605 714.788 445.87C752.371 466.134 787.183 480.272 811.212 490.875C835.241 501.479 837.397 515.617 877.445 561.801C917.494 607.984 993.893 718.025 986.5 718.025C979.106 718.025 915.029 690.456 853.724 654.875C792.42 619.295 736.044 631.783 639.62 624.243C543.196 616.703 375.301 561.801 348.808 552.375Z" />
                </g>
                <g id="vetor1" filter="url(#filter1_f)">
                <path d="M562.671 111.304C597.747 110.425 694.47 139.417 800.755 262.412C795.342 284.397 779.369 331.455 758.778 343.806C733.04 359.245 627.763 350.865 581.618 345.195C535.472 339.526 479.395 222.928 476.063 165.576C473.398 119.695 532.691 110.277 562.671 111.304Z" fill="#5E2F9A" fill-opacity="0.68"/>
                <path d="M562.671 111.304C597.747 110.425 694.47 139.417 800.755 262.412C795.342 284.397 779.369 331.455 758.778 343.806C733.04 359.245 627.763 350.865 581.618 345.195C535.472 339.526 479.395 222.928 476.063 165.576C473.398 119.695 532.691 110.277 562.671 111.304Z" />
                </g>
                <g id="quad4">
                <rect x="810.149" y="419.462" width="86.0722" height="86.0722" fill="#25A6AF"/>
                <rect x="810.149" y="419.462" width="86.0722" height="86.0722" />
                </g>
                <g id="quad3">
                <rect x="874.703" y="523.017" width="43.0361" height="43.0361" fill="#25A6AF"/>
                <rect x="874.703" y="523.017" width="43.0361" height="43.0361" />
                </g>
                <g id="quad2">
                <rect x="55" y="264.714" width="69.9336" height="69.9336" transform="rotate(-40.7385 55 264.714)" fill="#25A6AF"/>
                <rect x="55" y="264.714" width="69.9336" height="69.9336" transform="rotate(-40.7385 55 264.714)" />
                </g>
                <g id="quad1">
                <rect x="249.335" y="544.535" width="32.2771" height="32.2771" fill="#25A6AF"/>
                <rect x="249.335" y="544.535" width="32.2771" height="32.2771" />
                </g>
                <circle id="circ2" cx="482.671" cy="82.57" r="27.57" fill="#25A6AF"/>
                <circle id="circ1" cx="542.518" cy="100.726" r="18.8283" fill="#25A6AF"/>
                </g>
                <defs>
                <filter id="filter0_f" x="0.72583" y="20.2266" width="1086.27" height="797.798" filterUnits="userSpaceOnUse" color-interpolation-filters="sRGB">
                <feFlood flood-opacity="0" result="BackgroundImageFix"/>
                <feBlend mode="normal" in="SourceGraphic" in2="BackgroundImageFix" result="shape"/>
                <feGaussianBlur stdDeviation="50" result="effect1_foregroundBlur"/>
                </filter>
                <filter id="filter1_f" x="355.101" y="0.725861" width="560.502" height="469.763" filterUnits="userSpaceOnUse" color-interpolation-filters="sRGB">
                <feFlood flood-opacity="0" result="BackgroundImageFix"/>
                <feBlend mode="normal" in="SourceGraphic" in2="BackgroundImageFix" result="shape"/>
                <feGaussianBlur stdDeviation="50" result="effect1_foregroundBlur"/>
                </filter>
                </defs>
                </svg>